<svg width="13" height="13" viewBox="0 0 13 13" fill="none" xmlns="http://www.w3.org/2000/svg">
<g clip-path="url(#clip0_13_11524)">
<path d="M12.6201 7.05078C12.6201 3.73707 9.93377 1.05078 6.62006 1.05078C3.30635 1.05078 0.620056 3.73707 0.620056 7.05078C0.620056 10.0455 2.81416 12.5278 5.68256 12.9779V8.78516H4.15912V7.05078H5.68256V5.72891C5.68256 4.22516 6.57834 3.39453 7.94885 3.39453C8.6051 3.39453 9.29193 3.51172 9.29193 3.51172V4.98828H8.53537C7.79006 4.98828 7.55756 5.45082 7.55756 5.92578V7.05078H9.22162L8.9556 8.78516H7.55756V12.9779C10.426 12.5278 12.6201 10.0455 12.6201 7.05078Z" fill="black"/>
</g>
<defs>
<clipPath id="clip0_13_11524">
<rect width="12" height="12" fill="white" transform="translate(0.620056 0.949219)"/>
</clipPath>
</defs>
</svg>
