<svg width="24" height="25" viewBox="0 0 24 25" fill="none" xmlns="http://www.w3.org/2000/svg">
<g clip-path="url(#clip0_3_9982)">
<path d="M24 12.4058C24 5.77834 18.6274 0.405762 12 0.405762C5.37258 0.405762 0 5.77834 0 12.4058C0 18.3952 4.3882 23.3597 10.125 24.26V15.8745H7.07812V12.4058H10.125V9.76201C10.125 6.75451 11.9166 5.09326 14.6576 5.09326C15.9701 5.09326 17.3438 5.32764 17.3438 5.32764V8.28076H15.8306C14.34 8.28076 13.875 9.20584 13.875 10.1558V12.4058H17.2031L16.6711 15.8745H13.875V24.26C19.6118 23.3597 24 18.3952 24 12.4058Z" fill="black"/>
</g>
<defs>
<clipPath id="clip0_3_9982">
<rect width="24" height="24" fill="white" transform="translate(0 0.202881)"/>
</clipPath>
</defs>
</svg>
