<svg width="12" height="12" viewBox="0 0 12 12" fill="none" xmlns="http://www.w3.org/2000/svg">
<g clip-path="url(#clip0_13_12848)">
<path d="M12 6.10144C12 2.78773 9.31371 0.10144 6 0.10144C2.68629 0.10144 0 2.78773 0 6.10144C0 9.09617 2.1941 11.5784 5.0625 12.0286V7.83582H3.53906V6.10144H5.0625V4.77957C5.0625 3.27582 5.95828 2.44519 7.32879 2.44519C7.98504 2.44519 8.67188 2.56238 8.67188 2.56238V4.03894H7.91531C7.17 4.03894 6.9375 4.50148 6.9375 4.97644V6.10144H8.60156L8.33555 7.83582H6.9375V12.0286C9.8059 11.5784 12 9.09617 12 6.10144Z" fill="black"/>
</g>
<defs>
<clipPath id="clip0_13_12848">
<rect width="12" height="12" fill="white"/>
</clipPath>
</defs>
</svg>
