<svg width="13" height="13" viewBox="0 0 13 13" fill="none" xmlns="http://www.w3.org/2000/svg">
<g clip-path="url(#clip0_13_11519)">
<path d="M6.62006 2.13125C8.22318 2.13125 8.41303 2.13828 9.04349 2.16641C9.62943 2.19219 9.94584 2.29063 10.1568 2.37266C10.4357 2.48047 10.6372 2.61172 10.8458 2.82031C11.0568 3.03125 11.1857 3.23047 11.2935 3.50938C11.3755 3.72031 11.474 4.03906 11.4997 4.62266C11.5279 5.25547 11.5349 5.44531 11.5349 7.04609C11.5349 8.64922 11.5279 8.83906 11.4997 9.46953C11.474 10.0555 11.3755 10.3719 11.2935 10.5828C11.1857 10.8617 11.0544 11.0633 10.8458 11.2719C10.6349 11.4828 10.4357 11.6117 10.1568 11.7195C9.94584 11.8016 9.62709 11.9 9.04349 11.9258C8.41068 11.9539 8.22084 11.9609 6.62006 11.9609C5.01693 11.9609 4.82709 11.9539 4.19662 11.9258C3.61068 11.9 3.29428 11.8016 3.08334 11.7195C2.80443 11.6117 2.60287 11.4805 2.39427 11.2719C2.18334 11.0609 2.05443 10.8617 1.94662 10.5828C1.86459 10.3719 1.76615 10.0531 1.74037 9.46953C1.71224 8.83672 1.70521 8.64688 1.70521 7.04609C1.70521 5.44297 1.71224 5.25312 1.74037 4.62266C1.76615 4.03672 1.86459 3.72031 1.94662 3.50938C2.05443 3.23047 2.18568 3.02891 2.39427 2.82031C2.60521 2.60938 2.80443 2.48047 3.08334 2.37266C3.29428 2.29063 3.61303 2.19219 4.19662 2.16641C4.82709 2.13828 5.01693 2.13125 6.62006 2.13125ZM6.62006 1.05078C4.99115 1.05078 4.78724 1.05781 4.1474 1.08594C3.5099 1.11406 3.07162 1.21719 2.69193 1.36484C2.29584 1.51953 1.96068 1.72344 1.62787 2.05859C1.29271 2.39141 1.08881 2.72656 0.934119 3.12031C0.786462 3.50234 0.683337 3.93828 0.655212 4.57578C0.627087 5.21797 0.620056 5.42188 0.620056 7.05078C0.620056 8.67969 0.627087 8.88359 0.655212 9.52344C0.683337 10.1609 0.786462 10.5992 0.934119 10.9789C1.08881 11.375 1.29271 11.7102 1.62787 12.043C1.96068 12.3758 2.29584 12.582 2.68959 12.7344C3.07162 12.882 3.50756 12.9852 4.14506 13.0133C4.7849 13.0414 4.98881 13.0484 6.61771 13.0484C8.24662 13.0484 8.45053 13.0414 9.09037 13.0133C9.72787 12.9852 10.1662 12.882 10.5458 12.7344C10.9396 12.582 11.2747 12.3758 11.6076 12.043C11.9404 11.7102 12.1466 11.375 12.299 10.9813C12.4466 10.5992 12.5497 10.1633 12.5779 9.52578C12.606 8.88594 12.613 8.68203 12.613 7.05313C12.613 5.42422 12.606 5.22031 12.5779 4.58047C12.5497 3.94297 12.4466 3.50469 12.299 3.125C12.1513 2.72656 11.9474 2.39141 11.6122 2.05859C11.2794 1.72578 10.9443 1.51953 10.5505 1.36719C10.1685 1.21953 9.73256 1.11641 9.09506 1.08828C8.45287 1.05781 8.24896 1.05078 6.62006 1.05078Z" fill="black"/>
<path d="M6.62006 3.96875C4.91849 3.96875 3.53802 5.34922 3.53802 7.05078C3.53802 8.75234 4.91849 10.1328 6.62006 10.1328C8.32162 10.1328 9.70209 8.75234 9.70209 7.05078C9.70209 5.34922 8.32162 3.96875 6.62006 3.96875ZM6.62006 9.05C5.51615 9.05 4.62084 8.15469 4.62084 7.05078C4.62084 5.94688 5.51615 5.05156 6.62006 5.05156C7.72396 5.05156 8.61927 5.94688 8.61927 7.05078C8.61927 8.15469 7.72396 9.05 6.62006 9.05Z" fill="black"/>
<path d="M10.5435 3.84697C10.5435 4.24541 10.2201 4.56651 9.82396 4.56651C9.42553 4.56651 9.10443 4.24307 9.10443 3.84697C9.10443 3.44854 9.42787 3.12744 9.82396 3.12744C10.2201 3.12744 10.5435 3.45088 10.5435 3.84697Z" fill="black"/>
</g>
<defs>
<clipPath id="clip0_13_11519">
<rect width="12" height="12" fill="white" transform="translate(0.620056 0.949219)"/>
</clipPath>
</defs>
</svg>
