<svg width="24" height="25" viewBox="0 0 24 25" fill="none" xmlns="http://www.w3.org/2000/svg">
<g clip-path="url(#clip0_3_9977)">
<path d="M12 2.5667C15.2063 2.5667 15.5859 2.58076 16.8469 2.63701C18.0188 2.68857 18.6516 2.88545 19.0734 3.04951C19.6313 3.26514 20.0344 3.52764 20.4516 3.94482C20.8734 4.3667 21.1313 4.76514 21.3469 5.32295C21.5109 5.74482 21.7078 6.38232 21.7594 7.54951C21.8156 8.81514 21.8297 9.19482 21.8297 12.3964C21.8297 15.6026 21.8156 15.9823 21.7594 17.2433C21.7078 18.4151 21.5109 19.048 21.3469 19.4698C21.1313 20.0276 20.8687 20.4308 20.4516 20.8479C20.0297 21.2698 19.6313 21.5276 19.0734 21.7433C18.6516 21.9073 18.0141 22.1042 16.8469 22.1558C15.5813 22.212 15.2016 22.2261 12 22.2261C8.79375 22.2261 8.41406 22.212 7.15313 22.1558C5.98125 22.1042 5.34844 21.9073 4.92656 21.7433C4.36875 21.5276 3.96563 21.2651 3.54844 20.8479C3.12656 20.4261 2.86875 20.0276 2.65313 19.4698C2.48906 19.048 2.29219 18.4104 2.24063 17.2433C2.18438 15.9776 2.17031 15.5979 2.17031 12.3964C2.17031 9.19014 2.18438 8.81045 2.24063 7.54951C2.29219 6.37764 2.48906 5.74482 2.65313 5.32295C2.86875 4.76514 3.13125 4.36201 3.54844 3.94482C3.97031 3.52295 4.36875 3.26514 4.92656 3.04951C5.34844 2.88545 5.98594 2.68857 7.15313 2.63701C8.41406 2.58076 8.79375 2.5667 12 2.5667ZM12 0.405762C8.74219 0.405762 8.33438 0.419824 7.05469 0.476074C5.77969 0.532324 4.90313 0.738574 4.14375 1.03389C3.35156 1.34326 2.68125 1.75107 2.01563 2.42139C1.34531 3.08701 0.9375 3.75732 0.628125 4.54482C0.332812 5.30889 0.126563 6.18076 0.0703125 7.45576C0.0140625 8.74014 0 9.14795 0 12.4058C0 15.6636 0.0140625 16.0714 0.0703125 17.3511C0.126563 18.6261 0.332812 19.5026 0.628125 20.262C0.9375 21.0542 1.34531 21.7245 2.01563 22.3901C2.68125 23.0558 3.35156 23.4683 4.13906 23.7729C4.90313 24.0683 5.775 24.2745 7.05 24.3308C8.32969 24.387 8.7375 24.4011 11.9953 24.4011C15.2531 24.4011 15.6609 24.387 16.9406 24.3308C18.2156 24.2745 19.0922 24.0683 19.8516 23.7729C20.6391 23.4683 21.3094 23.0558 21.975 22.3901C22.6406 21.7245 23.0531 21.0542 23.3578 20.2667C23.6531 19.5026 23.8594 18.6308 23.9156 17.3558C23.9719 16.0761 23.9859 15.6683 23.9859 12.4104C23.9859 9.15264 23.9719 8.74482 23.9156 7.46514C23.8594 6.19014 23.6531 5.31357 23.3578 4.5542C23.0625 3.75732 22.6547 3.08701 21.9844 2.42139C21.3188 1.75576 20.6484 1.34326 19.8609 1.03857C19.0969 0.743262 18.225 0.537012 16.95 0.480762C15.6656 0.419824 15.2578 0.405762 12 0.405762Z" fill="black"/>
<path d="M12 6.2417C8.59688 6.2417 5.83594 9.00264 5.83594 12.4058C5.83594 15.8089 8.59688 18.5698 12 18.5698C15.4031 18.5698 18.1641 15.8089 18.1641 12.4058C18.1641 9.00264 15.4031 6.2417 12 6.2417ZM12 16.4042C9.79219 16.4042 8.00156 14.6136 8.00156 12.4058C8.00156 10.1979 9.79219 8.40732 12 8.40732C14.2078 8.40732 15.9984 10.1979 15.9984 12.4058C15.9984 14.6136 14.2078 16.4042 12 16.4042Z" fill="black"/>
<path d="M19.8469 5.9979C19.8469 6.79478 19.2 7.43697 18.4078 7.43697C17.6109 7.43697 16.9688 6.79009 16.9688 5.9979C16.9688 5.20103 17.6156 4.55884 18.4078 4.55884C19.2 4.55884 19.8469 5.20571 19.8469 5.9979Z" fill="black"/>
</g>
<defs>
<clipPath id="clip0_3_9977">
<rect width="24" height="24" fill="white" transform="translate(0 0.202881)"/>
</clipPath>
</defs>
</svg>
