<svg width="12" height="12" viewBox="0 0 12 12" fill="none" xmlns="http://www.w3.org/2000/svg">
<g clip-path="url(#clip0_13_12843)">
<path d="M6 1.18191C7.60313 1.18191 7.79297 1.18894 8.42344 1.21707C9.00938 1.24285 9.32578 1.34128 9.53672 1.42332C9.81563 1.53113 10.0172 1.66238 10.2258 1.87097C10.4367 2.08191 10.5656 2.28113 10.6734 2.56003C10.7555 2.77097 10.8539 3.08972 10.8797 3.67332C10.9078 4.30613 10.9148 4.49597 10.9148 6.09675C10.9148 7.69988 10.9078 7.88972 10.8797 8.52019C10.8539 9.10613 10.7555 9.42253 10.6734 9.63347C10.5656 9.91238 10.4344 10.1139 10.2258 10.3225C10.0148 10.5335 9.81563 10.6624 9.53672 10.7702C9.32578 10.8522 9.00703 10.9507 8.42344 10.9764C7.79063 11.0046 7.60078 11.0116 6 11.0116C4.39688 11.0116 4.20703 11.0046 3.57656 10.9764C2.99063 10.9507 2.67422 10.8522 2.46328 10.7702C2.18438 10.6624 1.98281 10.5311 1.77422 10.3225C1.56328 10.1116 1.43438 9.91238 1.32656 9.63347C1.24453 9.42253 1.14609 9.10378 1.12031 8.52019C1.09219 7.88738 1.08516 7.69753 1.08516 6.09675C1.08516 4.49363 1.09219 4.30378 1.12031 3.67332C1.14609 3.08738 1.24453 2.77097 1.32656 2.56003C1.43438 2.28113 1.56563 2.07957 1.77422 1.87097C1.98516 1.66003 2.18438 1.53113 2.46328 1.42332C2.67422 1.34128 2.99297 1.24285 3.57656 1.21707C4.20703 1.18894 4.39688 1.18191 6 1.18191ZM6 0.10144C4.37109 0.10144 4.16719 0.108472 3.52734 0.136597C2.88984 0.164722 2.45156 0.267847 2.07188 0.415503C1.67578 0.57019 1.34063 0.774097 1.00781 1.10925C0.672656 1.44207 0.46875 1.77722 0.314063 2.17097C0.166406 2.553 0.0632813 2.98894 0.0351563 3.62644C0.00703125 4.26863 0 4.47253 0 6.10144C0 7.73035 0.00703125 7.93425 0.0351563 8.5741C0.0632813 9.2116 0.166406 9.64988 0.314063 10.0296C0.46875 10.4257 0.672656 10.7608 1.00781 11.0936C1.34063 11.4264 1.67578 11.6327 2.06953 11.785C2.45156 11.9327 2.8875 12.0358 3.525 12.0639C4.16484 12.0921 4.36875 12.0991 5.99766 12.0991C7.62656 12.0991 7.83047 12.0921 8.47031 12.0639C9.10781 12.0358 9.54609 11.9327 9.92578 11.785C10.3195 11.6327 10.6547 11.4264 10.9875 11.0936C11.3203 10.7608 11.5266 10.4257 11.6789 10.0319C11.8266 9.64988 11.9297 9.21394 11.9578 8.57644C11.9859 7.9366 11.993 7.73269 11.993 6.10378C11.993 4.47488 11.9859 4.27097 11.9578 3.63113C11.9297 2.99363 11.8266 2.55535 11.6789 2.17566C11.5312 1.77722 11.3273 1.44207 10.9922 1.10925C10.6594 0.77644 10.3242 0.57019 9.93047 0.417847C9.54844 0.27019 9.1125 0.167065 8.475 0.13894C7.83281 0.108472 7.62891 0.10144 6 0.10144Z" fill="black"/>
<path d="M6 3.01941C4.29844 3.01941 2.91797 4.39988 2.91797 6.10144C2.91797 7.803 4.29844 9.18347 6 9.18347C7.70156 9.18347 9.08203 7.803 9.08203 6.10144C9.08203 4.39988 7.70156 3.01941 6 3.01941ZM6 8.10066C4.89609 8.10066 4.00078 7.20535 4.00078 6.10144C4.00078 4.99753 4.89609 4.10222 6 4.10222C7.10391 4.10222 7.99922 4.99753 7.99922 6.10144C7.99922 7.20535 7.10391 8.10066 6 8.10066Z" fill="black"/>
<path d="M9.92344 2.89751C9.92344 3.29595 9.6 3.61704 9.20391 3.61704C8.80547 3.61704 8.48438 3.2936 8.48438 2.89751C8.48438 2.49907 8.80781 2.17798 9.20391 2.17798C9.6 2.17798 9.92344 2.50142 9.92344 2.89751Z" fill="black"/>
</g>
<defs>
<clipPath id="clip0_13_12843">
<rect width="12" height="12" fill="white"/>
</clipPath>
</defs>
</svg>
