<svg width="24" height="25" viewBox="0 0 24 25" fill="none" xmlns="http://www.w3.org/2000/svg">
<g clip-path="url(#clip0_3_9984)">
<path d="M22.2234 0.405762H1.77187C0.792187 0.405762 0 1.1792 0 2.13545V22.6714C0 23.6276 0.792187 24.4058 1.77187 24.4058H22.2234C23.2031 24.4058 24 23.6276 24 22.6761V2.13545C24 1.1792 23.2031 0.405762 22.2234 0.405762ZM7.12031 20.8573H3.55781V9.40107H7.12031V20.8573ZM5.33906 7.84014C4.19531 7.84014 3.27188 6.9167 3.27188 5.77764C3.27188 4.63857 4.19531 3.71514 5.33906 3.71514C6.47813 3.71514 7.40156 4.63857 7.40156 5.77764C7.40156 6.91201 6.47813 7.84014 5.33906 7.84014ZM20.4516 20.8573H16.8937V15.2886C16.8937 13.962 16.8703 12.2511 15.0422 12.2511C13.1906 12.2511 12.9094 13.6995 12.9094 15.1948V20.8573H9.35625V9.40107H12.7687V10.9667H12.8156C13.2891 10.0667 14.4516 9.11514 16.1813 9.11514C19.7859 9.11514 20.4516 11.487 20.4516 14.5714V20.8573Z" fill="black"/>
</g>
<defs>
<clipPath id="clip0_3_9984">
<rect width="24" height="24" fill="white" transform="translate(0 0.202881)"/>
</clipPath>
</defs>
</svg>
