<svg width="12" height="12" viewBox="0 0 12 12" fill="none" xmlns="http://www.w3.org/2000/svg">
<g clip-path="url(#clip0_13_12850)">
<path d="M11.1117 0.10144H0.885937C0.396094 0.10144 0 0.488159 0 0.966284V11.2343C0 11.7124 0.396094 12.1014 0.885937 12.1014H11.1117C11.6016 12.1014 12 11.7124 12 11.2366V0.966284C12 0.488159 11.6016 0.10144 11.1117 0.10144ZM3.56016 10.3272H1.77891V4.5991H3.56016V10.3272ZM2.66953 3.81863C2.09766 3.81863 1.63594 3.35691 1.63594 2.78738C1.63594 2.21785 2.09766 1.75613 2.66953 1.75613C3.23906 1.75613 3.70078 2.21785 3.70078 2.78738C3.70078 3.35457 3.23906 3.81863 2.66953 3.81863ZM10.2258 10.3272H8.44687V7.54285C8.44687 6.87957 8.43516 6.0241 7.52109 6.0241C6.59531 6.0241 6.45469 6.74832 6.45469 7.49597V10.3272H4.67813V4.5991H6.38437V5.38191H6.40781C6.64453 4.93191 7.22578 4.45613 8.09063 4.45613C9.89297 4.45613 10.2258 5.64207 10.2258 7.18425V10.3272Z" fill="black"/>
</g>
<defs>
<clipPath id="clip0_13_12850">
<rect width="12" height="12" fill="white"/>
</clipPath>
</defs>
</svg>
