<svg width="13" height="13" viewBox="0 0 13 13" fill="none" xmlns="http://www.w3.org/2000/svg">
<g clip-path="url(#clip0_13_11526)">
<path d="M11.7318 1.05078H1.50599C1.01615 1.05078 0.620056 1.4375 0.620056 1.91563V12.1836C0.620056 12.6617 1.01615 13.0508 1.50599 13.0508H11.7318C12.2216 13.0508 12.6201 12.6617 12.6201 12.1859V1.91563C12.6201 1.4375 12.2216 1.05078 11.7318 1.05078ZM4.18021 11.2766H2.39896V5.54844H4.18021V11.2766ZM3.28959 4.76797C2.71771 4.76797 2.25599 4.30625 2.25599 3.73672C2.25599 3.16719 2.71771 2.70547 3.28959 2.70547C3.85912 2.70547 4.32084 3.16719 4.32084 3.73672C4.32084 4.30391 3.85912 4.76797 3.28959 4.76797ZM10.8458 11.2766H9.06693V8.49219C9.06693 7.82891 9.05521 6.97344 8.14115 6.97344C7.21537 6.97344 7.07474 7.69766 7.07474 8.44531V11.2766H5.29818V5.54844H7.00443V6.33125H7.02787C7.26459 5.88125 7.84584 5.40547 8.71068 5.40547C10.513 5.40547 10.8458 6.59141 10.8458 8.13359V11.2766Z" fill="black"/>
</g>
<defs>
<clipPath id="clip0_13_11526">
<rect width="12" height="12" fill="white" transform="translate(0.620056 0.949219)"/>
</clipPath>
</defs>
</svg>
