<svg width="218" height="94" viewBox="0 0 218 94" fill="none" xmlns="http://www.w3.org/2000/svg">
<g filter="url(#filter0_d_13_12627)">
<path d="M65.3457 63.8164V77H27.4551V63.8164H65.3457ZM33.5586 5.90625V77H16.4199V5.90625H33.5586ZM60.4629 34.1289V46.873H27.4551V34.1289H60.4629ZM65.4922 5.90625V19.1387H27.4551V5.90625H65.4922ZM80.183 5.90625H94.1479L110.017 55.3691L125.886 5.90625H139.851L115.681 77H104.353L80.183 5.90625ZM71.687 5.90625H86.1401L88.8256 60.3984V77H71.687V5.90625ZM133.894 5.90625H148.396V77H131.208V60.3984L133.894 5.90625ZM176.905 5.90625V77H159.815V5.90625H176.905Z" fill="url(#paint0_linear_13_12627)"/>
<path d="M202.25 68.0938C202.25 67.5469 202.065 67.0781 201.694 66.6875C201.342 66.2773 200.717 65.9062 199.819 65.5742C198.92 65.2227 197.66 64.8711 196.039 64.5195C194.496 64.1875 193.041 63.748 191.674 63.2012C190.326 62.6543 189.145 61.9902 188.129 61.209C187.114 60.4277 186.313 59.5 185.727 58.4258C185.16 57.3516 184.877 56.1211 184.877 54.7344C184.877 53.3867 185.16 52.1172 185.727 50.9258C186.313 49.7148 187.162 48.6504 188.276 47.7324C189.409 46.7949 190.785 46.0625 192.407 45.5352C194.028 44.9883 195.873 44.7148 197.944 44.7148C200.795 44.7148 203.256 45.1543 205.326 46.0332C207.397 46.8926 208.989 48.1035 210.102 49.666C211.235 51.209 211.801 52.9961 211.801 55.0273H201.928C201.928 54.2266 201.791 53.543 201.518 52.9766C201.264 52.4102 200.844 51.9805 200.258 51.6875C199.672 51.375 198.891 51.2188 197.914 51.2188C197.231 51.2188 196.606 51.3457 196.039 51.5996C195.492 51.8535 195.053 52.2051 194.721 52.6543C194.389 53.1035 194.223 53.6309 194.223 54.2363C194.223 54.666 194.321 55.0566 194.516 55.4082C194.731 55.7402 195.053 56.0527 195.483 56.3457C195.912 56.6191 196.459 56.873 197.123 57.1074C197.787 57.3223 198.588 57.5176 199.526 57.6934C201.655 58.084 203.647 58.6406 205.502 59.3633C207.358 60.0859 208.862 61.1113 210.014 62.4395C211.186 63.7676 211.772 65.5547 211.772 67.8008C211.772 69.207 211.45 70.5059 210.805 71.6973C210.16 72.8691 209.233 73.9043 208.022 74.8027C206.811 75.6816 205.356 76.3652 203.657 76.8535C201.957 77.3418 200.043 77.5859 197.914 77.5859C194.887 77.5859 192.328 77.0488 190.239 75.9746C188.149 74.8809 186.567 73.5137 185.492 71.873C184.438 70.2129 183.91 68.5332 183.91 66.834H193.11C193.149 67.8105 193.383 68.6113 193.813 69.2363C194.262 69.8613 194.858 70.3203 195.6 70.6133C196.342 70.9062 197.201 71.0527 198.178 71.0527C199.076 71.0527 199.819 70.9258 200.405 70.6719C201.01 70.418 201.469 70.0762 201.782 69.6465C202.094 69.1973 202.25 68.6797 202.25 68.0938Z" fill="black"/>
</g>
<defs>
<filter id="filter0_d_13_12627" x="0.519922" y="0.00625038" width="217.181" height="93.4797" filterUnits="userSpaceOnUse" color-interpolation-filters="sRGB">
<feFlood flood-opacity="0" result="BackgroundImageFix"/>
<feColorMatrix in="SourceAlpha" type="matrix" values="0 0 0 0 0 0 0 0 0 0 0 0 0 0 0 0 0 0 127 0" result="hardAlpha"/>
<feOffset dx="-5" dy="5"/>
<feGaussianBlur stdDeviation="5.45"/>
<feComposite in2="hardAlpha" operator="out"/>
<feColorMatrix type="matrix" values="0 0 0 0 0 0 0 0 0 0 0 0 0 0 0 0 0 0 0.15 0"/>
<feBlend mode="normal" in2="BackgroundImageFix" result="effect1_dropShadow_13_12627"/>
<feBlend mode="normal" in="SourceGraphic" in2="effect1_dropShadow_13_12627" result="shape"/>
</filter>
<linearGradient id="paint0_linear_13_12627" x1="113" y1="1" x2="113" y2="85" gradientUnits="userSpaceOnUse">
<stop stop-color="#093F89"/>
<stop offset="1" stop-color="#4799FF"/>
</linearGradient>
</defs>
</svg>
