<svg width="321" height="130" viewBox="0 0 321 130" fill="none" xmlns="http://www.w3.org/2000/svg">
<g filter="url(#filter0_d_3_9728)">
<path d="M89.5186 93.2246V113H32.6826V93.2246H89.5186ZM41.8379 6.35938V113H16.1299V6.35938H41.8379ZM82.1943 48.6934V67.8096H32.6826V48.6934H82.1943ZM89.7383 6.35938V26.208H32.6826V6.35938H89.7383ZM112.12 6.35938H133.067L156.871 80.5537L180.674 6.35938H201.622L165.367 113H148.374L112.12 6.35938ZM99.3754 6.35938H121.055L125.083 88.0977V113H99.3754V6.35938ZM192.686 6.35938H214.439V113H188.658V88.0977L192.686 6.35938ZM257.548 6.35938V113H231.913V6.35938H257.548Z" fill="url(#paint0_linear_3_9728)"/>
<path d="M299.143 98.1562C299.143 97.2448 298.834 96.4635 298.215 95.8125C297.629 95.1289 296.588 94.5104 295.09 93.957C293.593 93.3711 291.493 92.7852 288.791 92.1992C286.22 91.6458 283.795 90.9134 281.516 90.002C279.27 89.0905 277.3 87.9837 275.608 86.6816C273.915 85.3796 272.58 83.8333 271.604 82.043C270.66 80.2526 270.188 78.2018 270.188 75.8906C270.188 73.6445 270.66 71.5286 271.604 69.543C272.58 67.5247 273.996 65.7507 275.852 64.2207C277.74 62.6582 280.035 61.4375 282.737 60.5586C285.438 59.6471 288.515 59.1914 291.965 59.1914C296.718 59.1914 300.819 59.9238 304.27 61.3887C307.72 62.821 310.373 64.8392 312.229 67.4434C314.117 70.015 315.061 72.9935 315.061 76.3789H298.606C298.606 75.0443 298.378 73.9049 297.922 72.9609C297.499 72.0169 296.799 71.3008 295.823 70.8125C294.846 70.2917 293.544 70.0312 291.916 70.0312C290.777 70.0312 289.735 70.2428 288.791 70.666C287.88 71.0892 287.147 71.6751 286.594 72.4238C286.041 73.1725 285.764 74.0514 285.764 75.0605C285.764 75.7767 285.927 76.4277 286.252 77.0137C286.61 77.5671 287.147 78.0879 287.864 78.5762C288.58 79.0319 289.491 79.4551 290.598 79.8457C291.705 80.2038 293.039 80.5293 294.602 80.8223C298.15 81.4733 301.47 82.401 304.563 83.6055C307.655 84.8099 310.162 86.5189 312.082 88.7324C314.035 90.946 315.012 93.9245 315.012 97.668C315.012 100.012 314.475 102.176 313.401 104.162C312.326 106.115 310.78 107.84 308.762 109.338C306.744 110.803 304.319 111.942 301.487 112.756C298.655 113.57 295.464 113.977 291.916 113.977C286.871 113.977 282.606 113.081 279.123 111.291C275.64 109.468 273.004 107.189 271.213 104.455C269.455 101.688 268.576 98.8887 268.576 96.0566H283.909C283.974 97.6842 284.364 99.0189 285.08 100.061C285.829 101.102 286.822 101.867 288.059 102.355C289.296 102.844 290.728 103.088 292.356 103.088C293.853 103.088 295.09 102.876 296.067 102.453C297.076 102.03 297.841 101.46 298.362 100.744C298.882 99.9954 299.143 99.1328 299.143 98.1562Z" fill="black"/>
</g>
<defs>
<filter id="filter0_d_3_9728" x="0.229883" y="0.459375" width="320.731" height="129.417" filterUnits="userSpaceOnUse" color-interpolation-filters="sRGB">
<feFlood flood-opacity="0" result="BackgroundImageFix"/>
<feColorMatrix in="SourceAlpha" type="matrix" values="0 0 0 0 0 0 0 0 0 0 0 0 0 0 0 0 0 0 127 0" result="hardAlpha"/>
<feOffset dx="-5" dy="5"/>
<feGaussianBlur stdDeviation="5.45"/>
<feComposite in2="hardAlpha" operator="out"/>
<feColorMatrix type="matrix" values="0 0 0 0 0 0 0 0 0 0 0 0 0 0 0 0 0 0 0.15 0"/>
<feBlend mode="normal" in2="BackgroundImageFix" result="effect1_dropShadow_3_9728"/>
<feBlend mode="normal" in="SourceGraphic" in2="effect1_dropShadow_3_9728" result="shape"/>
</filter>
<linearGradient id="paint0_linear_3_9728" x1="180" y1="-6" x2="180" y2="130" gradientUnits="userSpaceOnUse">
<stop stop-color="#093F89"/>
<stop offset="1" stop-color="#4799FF"/>
</linearGradient>
</defs>
</svg>
