<svg width="13" height="12" viewBox="0 0 13 12" fill="none" xmlns="http://www.w3.org/2000/svg">
<path fill-rule="evenodd" clip-rule="evenodd" d="M12.6201 6.05078C12.6201 9.36449 9.93376 12.0508 6.62006 12.0508C3.30635 12.0508 0.620056 9.36449 0.620056 6.05078C0.620056 2.73707 3.30635 0.0507812 6.62006 0.0507812C9.93376 0.0507812 12.6201 2.73707 12.6201 6.05078ZM6.83507 4.48025C6.25148 4.72298 5.08512 5.22538 3.336 5.98744C3.05197 6.10039 2.90318 6.21089 2.88964 6.31893C2.86675 6.50153 3.09541 6.57343 3.40679 6.67134C3.44915 6.68466 3.49303 6.69846 3.53802 6.71309C3.84437 6.81267 4.25647 6.92917 4.4707 6.9338C4.66503 6.93799 4.88192 6.85788 5.12138 6.69345C6.75564 5.59028 7.59925 5.03269 7.65221 5.02067C7.68958 5.01218 7.74136 5.00152 7.77644 5.0327C7.81152 5.06389 7.80807 5.12294 7.80436 5.13878C7.7817 5.23535 6.88411 6.06984 6.41961 6.50168C6.27481 6.6363 6.17209 6.73179 6.1511 6.7536C6.10406 6.80245 6.05612 6.84867 6.01005 6.89308C5.72544 7.16745 5.51201 7.37319 6.02186 7.70918C6.26687 7.87063 6.46293 8.00415 6.65852 8.13734C6.87213 8.28282 7.08519 8.42791 7.36086 8.60861C7.43109 8.65465 7.49817 8.70247 7.5635 8.74904C7.81209 8.92627 8.03543 9.08549 8.31135 9.0601C8.47168 9.04534 8.63729 8.89459 8.72139 8.44496C8.92016 7.38235 9.31087 5.08001 9.40117 4.13127C9.40908 4.04815 9.39913 3.94177 9.39113 3.89507C9.38314 3.84837 9.36644 3.78184 9.30574 3.73258C9.23385 3.67425 9.12287 3.66195 9.07324 3.66282C8.84757 3.6668 8.50133 3.78719 6.83507 4.48025Z" fill="black"/>
</svg>
