<svg width="12" height="12" viewBox="0 0 12 12" fill="none" xmlns="http://www.w3.org/2000/svg">
<path fill-rule="evenodd" clip-rule="evenodd" d="M12 6.10144C12 9.41515 9.31371 12.1014 6 12.1014C2.68629 12.1014 0 9.41515 0 6.10144C0 2.78773 2.68629 0.10144 6 0.10144C9.31371 0.10144 12 2.78773 12 6.10144ZM6.21501 4.5309C5.63142 4.77364 4.46507 5.27604 2.71595 6.0381C2.43192 6.15105 2.28313 6.26155 2.26958 6.36959C2.24669 6.55219 2.47536 6.62409 2.78674 6.722C2.82909 6.73532 2.87298 6.74912 2.91797 6.76374C3.22432 6.86333 3.63641 6.97983 3.85064 6.98446C4.04497 6.98865 4.26186 6.90854 4.50132 6.74411C6.13558 5.64094 6.97919 5.08335 7.03216 5.07132C7.06952 5.06284 7.1213 5.05218 7.15638 5.08336C7.19147 5.11455 7.18802 5.1736 7.1843 5.18944C7.16165 5.28601 6.26405 6.1205 5.79955 6.55234C5.65475 6.68696 5.55204 6.78245 5.53104 6.80426C5.484 6.85311 5.43606 6.89933 5.38999 6.94374C5.10538 7.2181 4.89196 7.42385 5.40181 7.75983C5.64681 7.92129 5.84287 8.05481 6.03846 8.188C6.25208 8.33348 6.46514 8.47857 6.74081 8.65927C6.81104 8.70531 6.87811 8.75313 6.94344 8.7997C7.19203 8.97693 7.41537 9.13615 7.69129 9.11076C7.85162 9.096 8.01723 8.94524 8.10134 8.49562C8.30011 7.43301 8.69081 5.13067 8.78111 4.18193C8.78902 4.09881 8.77907 3.99243 8.77108 3.94573C8.76308 3.89903 8.74638 3.83249 8.68568 3.78324C8.6138 3.72491 8.50282 3.71261 8.45318 3.71348C8.22751 3.71746 7.88128 3.83785 6.21501 4.5309Z" fill="black"/>
</svg>
