<svg width="24" height="25" viewBox="0 0 24 25" fill="none" xmlns="http://www.w3.org/2000/svg">
<path fill-rule="evenodd" clip-rule="evenodd" d="M24 12.4058C24 19.0332 18.6274 24.4058 12 24.4058C5.37258 24.4058 0 19.0332 0 12.4058C0 5.77835 5.37258 0.405762 12 0.405762C18.6274 0.405762 24 5.77835 24 12.4058ZM12.43 9.26469C11.2628 9.75016 8.93014 10.755 5.43189 12.2791C4.86383 12.505 4.56626 12.726 4.53917 12.9421C4.49339 13.3073 4.95071 13.4511 5.57348 13.6469C5.65819 13.6735 5.74596 13.7011 5.83594 13.7304C6.44864 13.9295 7.27283 14.1625 7.70129 14.1718C8.08994 14.1802 8.52373 14.02 9.00264 13.6911C12.2712 11.4848 13.9584 10.3696 14.0643 10.3455C14.139 10.3286 14.2426 10.3072 14.3128 10.3696C14.3829 10.432 14.376 10.5501 14.3686 10.5818C14.3233 10.7749 12.5281 12.4439 11.5991 13.3076C11.3095 13.5768 11.1041 13.7678 11.0621 13.8114C10.968 13.9091 10.8721 14.0015 10.78 14.0904C10.2108 14.6391 9.78391 15.0506 10.8036 15.7226C11.2936 16.0455 11.6857 16.3125 12.0769 16.5789C12.5042 16.8698 12.9303 17.16 13.4816 17.5214C13.6221 17.6135 13.7562 17.7091 13.8869 17.8023C14.3841 18.1567 14.8307 18.4752 15.3826 18.4244C15.7032 18.3949 16.0345 18.0934 16.2027 17.1941C16.6002 15.0689 17.3816 10.4642 17.5622 8.56674C17.578 8.40049 17.5581 8.18773 17.5422 8.09434C17.5262 8.00094 17.4928 7.86787 17.3714 7.76936C17.2276 7.6527 17.0056 7.6281 16.9064 7.62985C16.455 7.6378 15.7626 7.87858 12.43 9.26469Z" fill="black"/>
</svg>
