<svg width="20" height="21" viewBox="0 0 20 21" fill="none" xmlns="http://www.w3.org/2000/svg">
<path d="M6.66667 6.31893V2.9856M13.3333 6.31893V2.9856M5.83333 9.65226H14.1667M4.16667 17.9856H15.8333C16.2754 17.9856 16.6993 17.81 17.0118 17.4974C17.3244 17.1849 17.5 16.761 17.5 16.3189V6.31893C17.5 5.8769 17.3244 5.45298 17.0118 5.14042C16.6993 4.82786 16.2754 4.65226 15.8333 4.65226H4.16667C3.72464 4.65226 3.30072 4.82786 2.98816 5.14042C2.67559 5.45298 2.5 5.8769 2.5 6.31893V16.3189C2.5 16.761 2.67559 17.1849 2.98816 17.4974C3.30072 17.81 3.72464 17.9856 4.16667 17.9856Z" stroke="white" stroke-width="1.66667" stroke-linecap="round" stroke-linejoin="round"/>
</svg>
