<svg width="21" height="21" viewBox="0 0 21 21" fill="none" xmlns="http://www.w3.org/2000/svg">
<g clip-path="url(#clip0_13_12663)">
<path d="M6.96696 6.83333V3.5M13.6336 6.83333V3.5M6.13363 10.1667H14.467M4.46696 18.5H16.1336C16.5757 18.5 16.9996 18.3244 17.3121 18.0118C17.6247 17.6993 17.8003 17.2754 17.8003 16.8333V6.83333C17.8003 6.39131 17.6247 5.96738 17.3121 5.65482C16.9996 5.34226 16.5757 5.16667 16.1336 5.16667H4.46696C4.02493 5.16667 3.60101 5.34226 3.28845 5.65482C2.97589 5.96738 2.80029 6.39131 2.80029 6.83333V16.8333C2.80029 17.2754 2.97589 17.6993 3.28845 18.0118C3.60101 18.3244 4.02493 18.5 4.46696 18.5Z" stroke="white" stroke-width="1.66667" stroke-linecap="round" stroke-linejoin="round"/>
</g>
<defs>
<clipPath id="clip0_13_12663">
<rect width="20" height="20" fill="white" transform="translate(0.141357 0.759521)"/>
</clipPath>
</defs>
</svg>
