<svg width="21" height="21" viewBox="0 0 21 21" fill="none" xmlns="http://www.w3.org/2000/svg">
<path d="M7.16667 6.31893V2.9856M13.8333 6.31893V2.9856M6.33333 9.65226H14.6667M4.66667 17.9856H16.3333C16.7754 17.9856 17.1993 17.81 17.5118 17.4974C17.8244 17.1849 18 16.761 18 16.3189V6.31893C18 5.8769 17.8244 5.45298 17.5118 5.14042C17.1993 4.82786 16.7754 4.65226 16.3333 4.65226H4.66667C4.22464 4.65226 3.80072 4.82786 3.48816 5.14042C3.17559 5.45298 3 5.8769 3 6.31893V16.3189C3 16.761 3.17559 17.1849 3.48816 17.4974C3.80072 17.81 4.22464 17.9856 4.66667 17.9856Z" stroke="white" stroke-width="1.66667" stroke-linecap="round" stroke-linejoin="round"/>
</svg>
