<svg width="20" height="21" viewBox="0 0 20 21" fill="none" xmlns="http://www.w3.org/2000/svg">
<path d="M6.66667 6.61117V3.27783M13.3333 6.61117V3.27783M5.83333 9.9445H14.1667M4.16667 18.2778H15.8333C16.2754 18.2778 16.6993 18.1022 17.0118 17.7897C17.3244 17.4771 17.5 17.0532 17.5 16.6112V6.61117C17.5 6.16914 17.3244 5.74521 17.0118 5.43265C16.6993 5.12009 16.2754 4.9445 15.8333 4.9445H4.16667C3.72464 4.9445 3.30072 5.12009 2.98816 5.43265C2.67559 5.74521 2.5 6.16914 2.5 6.61117V16.6112C2.5 17.0532 2.67559 17.4771 2.98816 17.7897C3.30072 18.1022 3.72464 18.2778 4.16667 18.2778Z" stroke="white" stroke-width="1.66667" stroke-linecap="round" stroke-linejoin="round"/>
</svg>
