<svg width="10" height="7" viewBox="0 0 10 7" fill="none" xmlns="http://www.w3.org/2000/svg">
<path fill-rule="evenodd" clip-rule="evenodd" d="M0.477189 0.793081C0.658041 0.60561 0.903296 0.500295 1.15902 0.500295C1.41475 0.500295 1.66 0.60561 1.84085 0.793081L5.01664 4.08608L8.19242 0.793081C8.28138 0.697571 8.3878 0.621389 8.50546 0.56898C8.62312 0.516571 8.74967 0.488985 8.87772 0.487831C9.00577 0.486677 9.13277 0.511978 9.25129 0.562259C9.36981 0.61254 9.47749 0.686793 9.56804 0.780686C9.65859 0.874579 9.7302 0.986231 9.77869 1.10913C9.82718 1.23202 9.85158 1.3637 9.85047 1.49648C9.84936 1.62926 9.82275 1.76048 9.77221 1.88249C9.72166 2.00449 9.64819 2.11483 9.55608 2.20708L5.69847 6.20708C5.51762 6.39455 5.27236 6.49987 5.01664 6.49987C4.76091 6.49987 4.51566 6.39455 4.3348 6.20708L0.477189 2.20708C0.296391 2.01955 0.194824 1.76525 0.194824 1.50008C0.194824 1.23492 0.296391 0.980609 0.477189 0.793081Z" fill="black"/>
</svg>
