<svg width="9" height="7" viewBox="0 0 9 7" fill="none" xmlns="http://www.w3.org/2000/svg">
<path fill-rule="evenodd" clip-rule="evenodd" d="M0.577524 0.793081C0.737145 0.60561 0.953608 0.500295 1.17931 0.500295C1.40502 0.500295 1.62148 0.60561 1.7811 0.793081L4.58406 4.08608L7.38701 0.793081C7.46553 0.697571 7.55946 0.621389 7.6633 0.56898C7.76715 0.516571 7.87884 0.488985 7.99186 0.487831C8.10488 0.486677 8.21697 0.511978 8.32158 0.562259C8.42618 0.61254 8.52122 0.686793 8.60114 0.780686C8.68106 0.874579 8.74426 0.986231 8.78706 1.10913C8.82986 1.23202 8.8514 1.3637 8.85041 1.49648C8.84943 1.62926 8.82595 1.76048 8.78134 1.88249C8.73673 2.00449 8.67189 2.11483 8.59059 2.20708L5.18584 6.20708C5.02622 6.39455 4.80976 6.49987 4.58406 6.49987C4.35835 6.49987 4.14189 6.39455 3.98227 6.20708L0.577524 2.20708C0.417951 2.01955 0.328308 1.76525 0.328308 1.50008C0.328308 1.23492 0.417951 0.980609 0.577524 0.793081Z" fill="black"/>
</svg>
